<?xml version="1.0" encoding="UTF-8"?><svg xmlns="http://www.w3.org/2000/svg" viewBox="0 0 3500 2500"><g id="a"><rect width="3500" height="2500" fill="#fff"/><path d="m1137.12,2200.54s-463.57-595.15-453.72-889.79c9.84-294.64,1088.93-1075.26,1368.26-1033.16,279.34,42.09,359.69,704.08,133.93,1186.22-225.77,482.14,325.26,133.93,375-156.89,49.74-290.82,566.33,356.11-114.8,893.62h-1308.67Z" fill="#deefff"/><path d="m2026.61,812.7c-19.83,0-35.97-16.13-35.97-35.97s16.13-35.97,35.97-35.97,35.97,16.13,35.97,35.97-16.13,35.97-35.97,35.97Zm0-59.84c-13.16,0-23.87,10.71-23.87,23.87s10.71,23.87,23.87,23.87,23.87-10.71,23.87-23.87-10.71-23.87-23.87-23.87Z" fill="#9bd"/><path d="m1175.88,725.81c-19.83,0-35.97-16.13-35.97-35.97s16.13-35.97,35.97-35.97,35.97,16.13,35.97,35.97-16.13,35.97-35.97,35.97Zm0-59.84c-13.16,0-23.87,10.71-23.87,23.87s10.71,23.87,23.87,23.87,23.87-10.71,23.87-23.87-10.71-23.87-23.87-23.87Z" fill="#9bd"/><path d="m1900.47,348.79c-15.68,0-28.43-12.75-28.43-28.43s12.76-28.43,28.43-28.43,28.43,12.75,28.43,28.43-12.76,28.43-28.43,28.43Zm0-44.77c-9.01,0-16.34,7.33-16.34,16.34s7.33,16.34,16.34,16.34,16.34-7.33,16.34-16.34-7.33-16.34-16.34-16.34Z" fill="#9bd"/><path d="m2820.83,1213.77c-19.83,0-35.97-16.13-35.97-35.97s16.13-35.97,35.97-35.97,35.97,16.13,35.97,35.97-16.13,35.97-35.97,35.97Zm0-59.84c-13.16,0-23.87,10.71-23.87,23.87s10.71,23.87,23.87,23.87,23.87-10.71,23.87-23.87-10.71-23.87-23.87-23.87Z" fill="#9bd"/><path d="m2541.78,919.78l-92.62-332.66,264.39-122.05,9.84,355.06-181.61,99.65Zm-78.21-326l85.76,308.06,161.76-88.76-9.13-329.34-238.4,110.05Z" fill="#9bd"/><path d="m2310.88,933.16l-1.79-3.23-170.72-307.25,289.67-29.77,89.89,333.41-207.05,6.84Zm-153.04-300.33l160.02,288,184.41-6.09-83.24-308.75-261.2,26.84Z" fill="#9bd"/><path d="m2507.18,927.6l-91.07-332.38,44.49-12.19,91.07,332.38-44.49,12.19Zm-76.21-323.92l84.68,309.06,21.16-5.8-84.68-309.06-21.16,5.8Z" fill="#9bd"/><path d="m2178.74,624.41l-9.47-7.52,19.16-24.15,1.54-.59c76.15-29.37,138.81-34.41,177.94-33.48,42.72,1.02,67.15,9.02,68.17,9.36l3.06,1.02,6.66,24.3-11.66,3.2-4.91-17.92c-7.64-2.07-29.48-7.15-62.21-7.88-37.67-.84-97.83,4.07-171.15,32.1l-17.11,21.56Z" fill="#9bd"/><path d="m2434.12,596.55l-6.66-24.3,2.12-2.44c.7-.81,17.65-20.14,53.87-42.8,33.2-20.76,89.66-48.35,170.15-61.9l1.62-.27,28.79,11.01-4.32,11.29-25.71-9.83c-77.36,13.26-131.63,39.71-163.61,59.63-27.79,17.31-43.98,32.8-49.51,38.49l4.91,17.92-11.66,3.2Z" fill="#9bd"/><path d="m2187.64,601.83l-49.61-55.31,20.74,6.32c.29.08,34.51,9.39,137.24-10.91,109.21-21.58,141.87,26.48,143.21,28.54l-10.14,6.59,5.07-3.29-5.04,3.33c-.07-.11-7.45-10.84-26.93-19.06-18.24-7.69-51.07-14.67-103.82-4.25-67.35,13.31-106.12,14.22-125.92,12.97l24.2,26.99-9,8.07Z" fill="#9bd"/><rect x="2432.46" y="623.64" width="34.51" height="12.09" transform="translate(-79.32 669.67) rotate(-15.32)" fill="#9bd"/><rect x="2439.92" y="650.87" width="34.51" height="12.09" transform="translate(-86.25 672.61) rotate(-15.32)" fill="#9bd"/><rect x="2500.24" y="869.55" width="34.51" height="12.09" transform="translate(-143.08 715.02) rotate(-15.72)" fill="#9bd"/><rect x="2492.59" y="842.37" width="34.51" height="12.09" transform="translate(-136 711.95) rotate(-15.72)" fill="#9bd"/><path d="m2424.18,586.17c-8.8-1.04-17.56-1.64-26.32-2.18-8.76-.5-17.53-.76-26.3-.95-4.39-.05-8.77-.15-13.16-.13-2.19,0-4.39-.08-6.59-.03-2.2.05-4.39.05-6.59.04-2.2-.03-4.4.05-6.6.07l-6.61.05c-4.41.03-8.82.17-13.27.05,4.34-.88,8.72-1.61,13.1-2.27,4.4-.51,8.79-1.14,13.21-1.44,4.42-.39,8.84-.62,13.28-.77,2.22-.07,4.43-.16,6.65-.15l6.65.04c8.87.19,17.74.8,26.55,1.98,4.4.58,8.78,1.31,13.13,2.22,4.34.95,8.67,1.97,12.86,3.46Z" fill="#9bd"/><path d="m2348.69,593.34c-12.06.1-24.03.69-36,1.45-11.96.8-23.89,1.88-35.8,3.16-2.98.32-5.95.71-8.92,1.05l-4.46.51-4.45.6-8.92,1.15c-2.96.47-5.93.9-8.9,1.31l-4.45.63c-1.49.21-2.96.49-4.44.71l-8.9,1.39c-5.94.91-11.84,2.03-17.83,2.85,2.87-.91,5.76-1.77,8.66-2.61l4.35-1.25c1.45-.42,2.91-.81,4.37-1.17,5.86-1.4,11.71-2.94,17.64-4.04,2.96-.61,5.92-1.2,8.88-1.75l8.93-1.48,4.47-.71,4.49-.59c3-.37,5.99-.78,8.99-1.11,12.01-1.3,24.08-2.04,36.16-2.17,12.07-.1,24.18.3,36.13,2.07Z" fill="#9bd"/><path d="m2439.6,578.98c7.03-6.39,14.48-12.25,22.09-17.89,7.62-5.63,15.42-11.01,23.4-16.11,7.98-5.11,16.19-9.87,24.54-14.36,8.38-4.44,16.98-8.5,25.86-11.85l-24.09,14.92-23.87,15.11-23.85,15.2c-7.96,5.07-15.94,10.11-24.09,14.98Z" fill="#9bd"/><path d="m2486.43,562.95c10.93-7.55,22.23-14.52,33.66-21.24,2.85-1.7,5.72-3.36,8.61-4.98,2.89-1.64,5.77-3.27,8.68-4.87,5.8-3.21,11.68-6.29,17.54-9.4l8.89-4.49c2.96-1.5,5.93-2.98,8.93-4.4,5.99-2.86,12.01-5.67,18.09-8.33,12.17-5.3,24.54-10.22,37.22-14.16-12,5.7-23.88,11.48-35.72,17.36-2.94,1.51-5.89,3-8.85,4.46-2.96,1.46-5.89,3.01-8.83,4.51-5.91,2.96-11.77,6.02-17.64,9.06l-8.81,4.55-8.79,4.6-17.61,9.16c-11.74,6.12-23.49,12.22-35.37,18.15Z" fill="#9bd"/><path d="m786.2,2187.39l-9.39-.83c.26-2.94,27.71-296.62,177.78-518.52l7.81,5.28c-148.71,219.9-175.94,511.15-176.2,514.07Z" fill="#9bd"/><path d="m740.95,2187.29l-9.41-.64c.34-5.01,33.31-503.01-16.74-655.93l8.96-2.93c50.62,154.66,18.58,638.96,17.19,659.5Z" fill="#9bd"/><path d="m680.63,2187.24c-.14-2.54-16.01-254.85-181.62-356.97l4.95-8.03c169.85,104.74,185.94,361.89,186.09,364.48l-9.41.52Z" fill="#9bd"/><path d="m829.76,2188.05l-9.18-2.15c.17-.72,17.2-73.14,35.87-144.05,9.79-37.21,29.78-47.78,45.84-56.28,15.92-8.42,27.42-14.5,25.68-44.09-1.05-17.93-3.17-31.18-4.88-41.82-4.47-27.95-6.51-40.71,18.95-76.16,14.93-20.77,28.13-27.44,37.78-32.31,12.52-6.33,18.81-9.5,19.81-40.63.29-8.97.42-16.52.53-23,.64-36.12.72-40.76,23.89-73.86,6.14-8.77,3.17-18.07-.41-24.34-8.84-15.49-32.91-31.08-56.06-29.3-16.74,1.29-29.25,11.57-36.17,29.73-22.66,59.39-36.52,69.43-61.68,87.66-5.59,4.05-11.93,8.64-18.99,14.3-36.08,28.86-47.12,42.51-39.77,93.82,4.53,31.64-12.53,67.48-27.58,99.1-10.42,21.9-20.27,42.58-19.53,55.86,1.88,33.88-11.27,199.76-11.83,206.8l-9.4-.75c.14-1.72,13.67-172.29,11.82-205.53-.87-15.68,9-36.42,20.43-60.44,14.48-30.42,30.88-64.89,26.76-93.71-7.98-55.71,5.52-72.37,43.21-102.52,7.24-5.79,13.68-10.46,19.35-14.57,23.69-17.17,36.74-26.63,58.4-83.39,8.21-21.5,23.92-34.2,44.26-35.77,24.51-1.9,53.01,13.06,64.98,34.03,6.96,12.2,6.94,24.42-.06,34.42-21.52,30.74-21.57,33.6-22.18,68.62-.12,6.52-.25,14.11-.54,23.14-1.13,35.01-9.78,41.06-24.98,48.74-9.26,4.68-20.79,10.5-34.37,29.4-23.2,32.29-21.6,42.33-17.3,69.17,1.74,10.85,3.9,24.35,4.98,42.75,2.1,35.64-13.83,44.07-30.69,52.98-15.18,8.03-32.39,17.13-41.13,50.35-18.63,70.78-35.63,143.08-35.8,143.8Z" fill="#9bd"/><path d="m652.66,2187.79c-.17-.95-17.07-95.15-52.75-120.13-39.2-27.44-50.98-48.05-54.81-95.9-.52-6.52-.9-12.33-1.24-17.53-2.1-32.33-2.48-38.16-24.34-48.36-7.62-3.55-14.73-5.38-21.6-7.15-17.79-4.56-33.15-8.5-37.65-39.94-2.22-15.5-9.19-21.99-17.26-29.49-10.68-9.94-22.78-21.19-20.5-54.39,1.18-17.09,10.66-23.35,18.4-25.6,31.33-9.11,95.65,31.96,112.7,55.2,12.73,17.35,22.78,20.93,34.42,25.08,6.52,2.32,13.27,4.72,20.89,9.57,1.8,1.15,3.64,2.29,5.51,3.45,19.55,12.15,43.89,27.28,47.57,62.28l.5,4.77c3.39,32.67,5.44,52.4,25.64,67.37,23.37,17.32,21.43,51.89,19.55,85.32l-.4,7.36c-1.86,35.2,1.42,116.27,1.46,117.08l-9.42.39c-.03-.82-3.33-82.33-1.45-117.97l.41-7.39c1.81-32.36,3.53-62.92-15.75-77.21-23.53-17.45-25.87-39.94-29.4-73.97l-.5-4.77c-3.2-30.41-23.52-43.04-43.17-55.25-1.9-1.18-3.77-2.34-5.59-3.5-6.71-4.27-12.95-6.49-18.98-8.64-12.01-4.28-24.43-8.69-38.87-28.38-15.48-21.11-75.97-59.38-102.47-51.72-4.57,1.32-10.74,4.54-11.61,17.18-1.98,28.71,7.05,37.11,17.51,46.84,8.2,7.62,17.48,16.26,20.18,35.06,3.61,25.2,13.79,27.81,30.66,32.14,6.95,1.78,14.84,3.8,23.25,7.73,26.92,12.56,27.64,23.58,29.77,56.3.34,5.15.71,10.91,1.23,17.38,3.63,45.43,13.61,62.89,50.81,88.93,38.88,27.22,55.93,122.2,56.64,126.23l-9.29,1.63Z" fill="#9bd"/><path d="m699.32,2006.62c0-.57-.33-57.61-18.39-105.24-19.3-50.9-22.64-72.05-11.28-134.54,5.81-31.98-3.96-55.14-14.31-79.65-9.21-21.83-18.74-44.4-17.84-74.3.9-29.62,8.97-41.78,16.09-52.51,7.98-12.03,14.29-21.54,7.7-55.93-4.5-23.48,18.43-44.06,42.26-49.67,24.54-5.78,57.54,2.71,69.57,45.71,14.75,52.73,16.28,85.24,17.3,106.75,1.04,21.96,1.56,32.98,13.67,45.96,16.56,17.75,13.41,38.41,9.77,62.34-2.61,17.12-5.57,36.53-1.46,58.05l-9.26,1.77c-4.4-23.11-1.32-43.37,1.4-61.24,3.41-22.39,6.11-40.08-7.34-54.49-14.47-15.5-15.12-29.22-16.19-51.94-1.06-22.35-2.5-52.96-16.96-104.66-10.21-36.52-36.81-44.11-58.34-39.07-19.59,4.61-38.6,20.72-35.15,38.72,7.31,38.17-.67,50.19-9.11,62.92-6.74,10.15-13.7,20.65-14.52,47.58-.84,27.85,8.27,49.46,17.09,70.35,10.43,24.71,21.21,50.26,14.9,85.01-10.95,60.21-7.74,80.57,10.82,129.51,18.69,49.27,19,106.17,19.01,108.57l-9.43.02Z" fill="#9bd"/><path d="m2753.47,2187.13l-8.91-3.08c4.22-12.23,105.17-299.79,256.56-331.94l1.96,9.23c-146.19,31.04-248.59,322.84-249.61,325.79Z" fill="#9bd"/><path d="m2708.27,2186.92l-9.05-2.65c1.05-3.6,104.67-362.85,51.01-637.73l9.26-1.81c54.11,277.15-50.15,638.57-51.21,642.19Z" fill="#9bd"/><path d="m2657.72,2186.89c-.56-1.95-56.76-195.46-140.61-225.38-20.97-7.48-42.3-3.84-63.41,10.82l-5.38-7.74c23.75-16.49,47.95-20.52,71.96-11.95,88.4,31.55,144.17,223.51,146.5,231.67l-9.07,2.59Z" fill="#9bd"/><path d="m2622.4,2188.05c-.24-.4-24.66-40.35-45.05-68.15-7.69-10.5-18.91-12.66-29.75-14.74-15.36-2.96-32.77-6.31-31.51-36.07l.16-3.78c1.11-25.79,1.91-44.42-5.39-51.47-3.46-3.35-9.16-4.59-17.99-3.91-13.46,1.03-25.74-1.16-36.58-3.09-15.75-2.81-29.35-5.24-42.54,2.3-6.02,3.44-9.79,2.18-11.91.51-3.72-2.93-4.37-8.65-1.94-17,5.78-19.86,34.65-65.03,82.71-69.89,64.06-6.47,76.01-3.74,98.36,22.49,9.57,11.23,14.48,18,18.06,22.95,6.99,9.65,7.72,10.66,29.85,24.18,30.77,18.8,42.48,36.01,37.97,55.81-4.31,18.92,12.17,104.9,18.88,136.43l-9.23,1.96c-1-4.71-24.49-115.68-18.84-140.48,2.33-10.25.61-24.71-33.7-45.67-22.86-13.97-24.74-15.89-32.57-26.7-3.49-4.82-8.27-11.42-17.6-22.36-19.17-22.49-26.88-25.65-90.24-19.22-31.34,3.17-55.58,26.89-67.83,48.02-6.45,11.14-7.92,18.52-7.85,21.39.32-.13.72-.33,1.19-.6,16.19-9.24,32.06-6.4,48.88-3.39,10.8,1.93,21.95,3.93,34.2,2.97,11.68-.91,19.72,1.16,25.27,6.53,10.35,10,9.51,29.35,8.26,58.65l-.16,3.77c-.91,21.64,8.42,23.43,23.87,26.41,11.45,2.2,25.69,4.95,35.58,18.42,20.63,28.13,45.24,68.42,45.49,68.83l-8.05,4.91Z" fill="#9bd"/><path d="m2673.01,2120.45l-8.93-3.03c.14-.41,13.89-41.4,19.42-96.73,2.51-25.16-4.64-39.72-11.55-53.81-8.15-16.61-16.59-33.78-7.95-65.59,8.32-30.65,19.44-35.94,28.38-40.19,7.54-3.59,12.52-5.95,14.39-27.78,1.78-20.74-4.52-28.3-11.18-36.28-8.43-10.1-17.13-20.55-6.7-52.93,7.51-23.29,15.58-32.99,22.07-40.78,8.43-10.12,13.51-16.22,9.53-52.02-3.24-29.21-12.67-40.81-20.24-50.13-8.68-10.68-16.16-19.89-8.01-46.55,12.15-39.73,26.9-74.26,72.98-60.59,37.46,11.11,52.6,51.54,39.52,105.51-4.65,19.18,4.1,43.53,13.36,69.31,12.09,33.64,25.79,71.77,11.65,106.69-7.62,18.82-13.38,29.41-17.19,36.41q-7.92,14.56-2.32,52.97c2.16,14.75,4.06,25.34,5.46,33.08,4.35,24.18,4.54,27.25-2.88,56.13l-9.14-2.35c7.12-27.71,6.87-29.09,2.73-52.11-1.4-7.8-3.32-18.48-5.5-33.38-5.89-40.35-5.8-42,3.37-58.84,3.93-7.22,9.32-17.12,16.73-35.44,12.78-31.59.29-66.35-11.78-99.97-9.75-27.15-18.97-52.79-13.65-74.72,11.96-49.34-.39-84.57-33.03-94.25-31.37-9.3-45.7,3.38-61.28,54.3-6.69,21.85-1.8,27.87,6.31,37.85,7.91,9.74,18.75,23.08,22.3,55.04,4.22,38.01-1.09,46.4-11.66,59.09-5.97,7.17-13.39,16.09-20.33,37.64-8.84,27.43-2.75,34.74,4.96,43.99,7.24,8.68,15.44,18.52,13.34,43.13-2.17,25.33-9.22,30.5-19.74,35.5-7.57,3.6-16.15,7.68-23.33,34.14-7.7,28.38-.74,42.55,7.32,58.97,7.15,14.56,15.25,31.07,12.47,58.91-5.65,56.47-19.74,98.41-19.87,98.82Z" fill="#9bd"/><path d="m2781.88,2186.59l-9.22-2c14.64-67.62,36.13-87.81,55.08-105.63,10.42-9.8,19.43-18.26,25.79-33.91,3.11-7.66,5.74-14.27,8.04-20.07,11.41-28.71,15.25-38.38,31.6-58.91,10.23-12.84,18.63-13.68,28.35-14.65,9.98-1,22.4-2.24,43.85-18.69,21.83-16.74,21.25-28.35,20.83-36.82-.37-7.45-.79-15.9,14.91-19.22,8.21-1.73,18.67-1.95,28.8-2.17,15.59-.33,33.26-.7,37.47-6.92,1.36-2,1.27-5.11-.28-9.22-3.03-8.1-9.4-13.86-18.92-17.12-18.1-6.19-45.3-1.93-64.72,10.09-15.34,9.49-26.89,5.59-37.09,2.15-11.88-4.01-22.14-7.47-40.28,6.91-14.94,11.86-20.43,25.75-25.27,38.01-6.52,16.51-12.81,32.11-40.13,30.76-19.82-1.03-24.38,11.81-31.21,36.4-4.71,16.95-10.04,36.16-24.51,51.88-31.29,34.01-59.41,167.73-59.68,169.08l-9.24-1.92c1.17-5.6,28.94-137.63,61.98-173.54,12.93-14.05,17.94-32.09,22.36-48.02,6.38-22.99,12.42-44.7,40.76-43.3,20.81,1.09,24.54-8.7,30.9-24.81,5.02-12.7,11.27-28.5,28.18-41.93,22.15-17.57,36.49-12.73,49.15-8.46,9.8,3.3,17.55,5.93,29.11-1.23,21.97-13.6,51.86-18.13,72.73-11,12.15,4.15,20.69,12.01,24.71,22.73,2.68,7.15,2.42,13.14-.75,17.82-6.95,10.25-25.47,10.64-45.08,11.06-9.69.2-19.71.41-27.04,1.97-7.83,1.65-7.78,2.7-7.44,9.52.49,9.97,1.24,25.03-24.51,44.78-23.58,18.08-38.08,19.53-48.66,20.58-8.82.88-14.15,1.42-21.9,11.15-15.48,19.43-18.89,28.03-30.22,56.51-2.32,5.82-4.95,12.45-8.07,20.13-7.14,17.57-17.31,27.13-28.07,37.24-17.95,16.87-38.31,35.99-52.32,100.75Z" fill="#9bd"/><path d="m617.36,2179.92h2205.54c24.36,0,44.14,19.78,44.14,44.14H573.23c0-24.36,19.78-44.14,44.14-44.14Z" fill="#576c89"/><path d="m821.38,1247.65c-.93,0-1.87-.02-2.81-.05l-251.67-9.7c-39.22-1.51-69.9-34.65-68.39-73.87l10.03-260.35c2.03-52.61,24.42-101.29,63.06-137.05,38.64-35.77,88.88-54.36,141.5-52.32,52.61,2.03,101.29,24.42,137.05,63.06,35.77,38.64,54.35,88.89,52.32,141.5l-10.03,260.35c-.73,19-8.82,36.58-22.77,49.49-13.26,12.28-30.32,18.95-48.29,18.95Zm-115.96-521.41c-98.76,0-180.96,78.37-184.79,177.9l-10.03,260.35c-1.25,32.56,24.21,60.07,56.77,61.32l251.67,9.7c15.78.6,30.84-4.96,42.42-15.69,11.58-10.72,18.3-25.31,18.9-41.09l10.03-260.35c1.9-49.38-15.54-96.55-49.11-132.82-33.57-36.27-79.26-57.29-128.65-59.19-2.41-.09-4.82-.14-7.22-.14Z" fill="#9bd"/><path d="m821.95,989.1c-1.06,0-2.13-.02-3.19-.06l-232.15-8.95c-21.61-.83-41.6-10.03-56.29-25.9-14.69-15.87-22.32-36.51-21.49-58.11l12.08.47c-1.46,37.94,28.22,70,66.16,71.46l232.15,8.95c18.38.71,35.94-5.78,49.43-18.28,13.5-12.5,21.32-29.5,22.03-47.88l12.08.47c-.83,21.61-10.03,41.6-25.9,56.29-15.08,13.96-34.48,21.55-54.92,21.55Z" fill="#9bd"/><path d="m893.53,1151l-12.08-.47c.5-12.87-4.05-25.17-12.8-34.63-8.75-9.45-20.66-14.93-33.54-15.43l-273.37-10.54c-12.87-.5-25.17,4.05-34.62,12.8-9.45,8.75-14.93,20.66-15.43,33.54l-12.08-.47c.62-16.1,7.47-31,19.3-41.95,11.82-10.95,27.19-16.64,43.31-16.01l273.37,10.54c16.1.62,31,7.47,41.95,19.3,10.95,11.82,16.63,27.2,16.01,43.31Z" fill="#9bd"/><path d="m509.94,1181.38l-6.04-.23c-27.26-1.05-48.58-24.08-47.53-51.34l1.34-34.71c.51-13.2,6.13-25.42,15.83-34.4,9.7-8.98,22.31-13.64,35.51-13.13l6.04.23-5.15,133.58Zm-7.42-121.48c-7.73.95-14.95,4.28-20.77,9.67-7.33,6.78-11.57,16.01-11.96,25.99l-1.34,34.71c-.71,18.54,12.27,34.49,29.89,38.07l4.18-108.44Z" fill="#9bd"/><path d="m887.68,1195.9c-.64,0-1.28-.01-1.93-.04l-6.04-.23,5.15-133.58,6.04.23c27.26,1.05,48.58,24.08,47.53,51.34l-1.34,34.71c-1.03,26.61-23,47.57-49.41,47.57Zm8.78-120.82l-4.18,108.45c7.73-.95,14.95-4.28,20.77-9.67,7.33-6.78,11.57-16.01,11.96-25.99l1.34-34.71c.38-9.98-3.14-19.51-9.92-26.83-5.39-5.83-12.33-9.7-19.97-11.24Z" fill="#9bd"/><rect x="661.89" y="940.95" width="75.99" height="63.51" rx="24.97" ry="24.97" transform="translate(37.98 -26.23) rotate(2.21)" fill="#9bd"/><path d="m730.43,721.02l1.29-33.6c.36-9.24-6.88-17.05-16.12-17.41l-8.1-.31c-9.24-.36-17.05,6.88-17.41,16.12l-1.29,33.6-11.97-.46,1.29-33.6c.61-15.81,14.04-28.24,29.85-27.63l8.1.31c15.81.61,28.24,14.04,27.63,29.85l-1.29,33.6-11.97-.46Z" fill="#9bd"/><rect x="693.33" y="969.07" width="12.09" height="277.92" transform="translate(-434.77 1764.22) rotate(-87.79)" fill="#9bd"/></g><g id="b"><path d="m1816.47,1947.54h713.62s-12.46,51.65-12.46,107.8,12.46,107.8,12.46,107.8h-713.62c-25.31,0-45.84-20.52-45.84-45.84v-123.87c0-25.36,20.52-45.88,45.84-45.88Z" fill="#fae0b2"/><path d="m2539.72,1918.22c8.11,0,14.66,6.6,14.66,14.66,0,4.06-1.61,7.72-4.3,10.36-2.64,2.69-6.3,4.3-10.36,4.3h-723.25c-25.31,0-45.84,20.52-45.84,45.88v123.87c0,25.31,20.52,45.84,45.84,45.84h723.25c8.11,0,14.66,6.55,14.66,14.66,0,4.06-1.61,7.67-4.3,10.36-2.64,2.64-6.3,4.3-10.36,4.3h-723.25c-41.54,0-75.15-33.67-75.15-75.15v-123.92c0-41.49,33.62-75.15,75.15-75.15h723.25Z" fill="#184655"/><path d="m1863.54,1989.27c42.26-1.89,84.52-3.16,126.77-3.8,42.26-.78,84.52-.99,126.77-1.09,42.26.09,84.52.29,126.77,1.07,42.26.64,84.52,1.91,126.77,3.81-42.26,1.9-84.52,3.17-126.77,3.81-42.26.78-84.52.98-126.77,1.07-42.26-.1-84.52-.31-126.77-1.08-42.26-.64-84.52-1.91-126.77-3.8Z" fill="#e5bd83"/><path d="m1837.11,2055.34c15.97-2.02,31.93-3.08,47.9-3.8,15.97-.78,31.93-.99,47.9-1.08,15.97.09,31.93.29,47.9,1.07,15.97.72,31.93,1.78,47.9,3.81-15.97,2.03-31.93,3.1-47.9,3.81-15.97.78-31.93.98-47.9,1.07-15.97-.1-31.93-.31-47.9-1.09-15.97-.72-31.93-1.78-47.9-3.8Z" fill="#e5bd83"/><path d="m1959.34,2123.07c15.97-2.02,31.93-3.08,47.9-3.8,15.97-.78,31.93-.99,47.9-1.08,15.97.09,31.93.29,47.9,1.07,15.97.72,31.93,1.78,47.9,3.81-15.97,2.03-31.93,3.1-47.9,3.81-15.97.78-31.93.99-47.9,1.07-15.97-.1-31.93-.31-47.9-1.08-15.97-.72-31.93-1.78-47.9-3.8Z" fill="#e5bd83"/><path d="m2060.16,2083.42c36.9-1.89,73.8-3.16,110.69-3.8,36.9-.78,73.8-.99,110.69-1.08,36.9.09,73.8.29,110.69,1.07,36.9.64,73.8,1.91,110.69,3.81-36.9,1.9-73.8,3.17-110.69,3.81-36.9.78-73.8.98-110.69,1.07-36.9-.1-73.8-.31-110.69-1.08-36.9-.64-73.8-1.91-110.69-3.8Z" fill="#e5bd83"/><path d="m1985.77,2185.83c-21.61-40.81-21.61-89.68,0-130.49h-122.23c-21.61,40.81-21.61,89.68,0,130.49,14.49-11.11,30.58-22.81,48.27-34.79,23.05,11.98,47.71,23.68,73.96,34.79Z" fill="#50bfa5"/><rect x="1814.32" y="1705.15" width="916.73" height="213.08" fill="#fe875e"/><rect x="1904.76" y="1705.15" width="54.25" height="213.08" fill="#f7a491"/><rect x="2586.37" y="1705.15" width="54.25" height="213.08" transform="translate(5226.99 3623.37) rotate(180)" fill="#f7a491"/><path d="m1814.32,1794.34s-69.37,33.45-80.52,123.88l29.73-24.78,10.53,24.78s6.81-76.81,40.26-106.54v-17.34Z" fill="#efefef"/><path d="m2014.44,1592.67s21.06,48.91-.78,108.97l-82.92-4.54-207.97-11.34v-.05s6.3-23.7,6.3-51.45c0-25.51-6.3-51.5-6.3-51.5v-.05l204.99,6.99,86.69,2.98Z" fill="#fae0b2"/><path d="m1718.41,1685.51l4.35.24,207.97,11.34,82.92,4.54c21.84-60.05.78-108.97.78-108.97l-86.69-2.98-204.99-6.99-4.94-.15c-6.6-.24-11.78-5.62-11.78-12.22s5.47-12.17,12.12-12.17h.54l307.9,11.39s40.66,67.53,0,154.95l-309.36-14.56c-6.65-.34-11.83-5.96-11.63-12.66.24-6.6,5.72-11.78,12.27-11.78h.54Z" fill="#3c8f7c"/><polygon points="1718.71 1558.17 2562.46 1547.52 2557.82 1547.71 2026.61 1569.56 1718.71 1558.17" fill="#3c8f7c"/><path d="m2036.9,1569.13l520.91-21.42c25.95-1.03,47.59,19.69,47.74,45.69l.34,64.89c.15,24.82-19.4,45.25-44.17,46.18l-535.12,20.03c40.66-87.42,0-154.95,0-154.95l10.3-.42Z" fill="#184655"/><path d="m2012.89,1634.58c-16.08,1.13-32.1,1.3-48.11,1.13-16.01-.11-31.99-.79-47.96-1.58-15.96-.97-31.92-2.07-47.84-3.73-15.93-1.6-31.84-3.55-47.69-6.47,16.08-1.14,32.11-1.32,48.11-1.15,16.01.11,31.99.79,47.96,1.59,15.96.98,31.92,2.08,47.84,3.74,15.93,1.6,31.84,3.55,47.69,6.45Z" fill="#e5bd83"/><path d="m1842.98,1660.19c-17.8,1.15-35.47.48-53.12-.61-17.63-1.28-35.24-3-52.72-6.55,17.8-1.16,35.47-.5,53.12.61,17.63,1.29,35.24,3.01,52.72,6.55Z" fill="#e5bd83"/><path d="m1871.5,1730.29c-16.24-23.92-14.59-80.72,3.01-103.66,31.91.93,62.65,4.86,94.57,5.79-17.61,22.93-18.07,76.72-1.83,100.65-19.87-7.1-39.12-16.27-57.06-26.6-13.97,9.4-26.64,17.65-38.69,23.82Z" fill="#f47458"/><path d="m2071.56,1415.03l15.08,1.34c-37.52,2.73-65.7,35.31-62.97,72.84l1.51,20.79c2.28,31.31,25.43,56.13,54.87,61.83l-242.41-19.09c-40.41-3.86-69.89-39.91-65.79-80.27l1.14-11.17c4.05-39.82,39.26-68.97,79.14-65.47h.05s219.39,19.2,219.39,19.2Z" fill="#355389"/><polygon points="2655.15 1402.59 2086.64 1416.37 2071.56 1415.03 1852.16 1395.83 1852.12 1395.83 1849.48 1395.59 2655.15 1402.59" fill="#355389"/><path d="m2638.84,1425.52l-550.94,15.25c-12.43,1.04-23.66,7.23-31.28,17.34-6.58,8.8-9.28,19.9-8.46,30.91l1.43,19.18c1.63,22.36,20.43,40.17,42.81,40.5,1.27.02,2.59-.06,3.86-.14l.59-.04,542.89-13.12,13.49-.34c6.36-.15,11.56,5.05,11.47,11.41l-.03,2c-.09,6.01-4.9,10.88-10.91,11.03l-555.7,13.43c-6.16.45-12.22.07-18.02-1.09-29.44-5.7-52.58-30.52-54.87-61.83l-1.51-20.79c-2.73-37.52,25.45-70.1,62.97-72.84l568.51-13.78c6.36-.15,11.56,5.01,11.47,11.41-.09,6.01-4.85,10.88-10.86,11.03l-16.92.49Z" fill="#86b1f2"/><path d="m2639.74,1535.39l-542.89,13.12-.59.04c-1.27.08-2.59.16-3.86.14-22.38-.32-41.18-18.14-42.81-40.5l-1.43-19.18c-.82-11.01,1.88-22.11,8.46-30.91,7.62-10.1,18.85-16.29,31.28-17.34l550.94-15.25c-.21.97-7.13,33.76-7.44,54.82-.3,20.96,8.34,55.05,8.34,55.05Z" fill="#fae0b2"/><path d="m2095.87,1472.59c15.9-2.68,31.83-4.39,47.78-5.76,15.95-1.44,31.92-2.3,47.89-3.05,15.98-.57,31.97-1.02,47.98-.9,16.01.06,32.03.47,48.09,1.84-15.89,2.69-31.83,4.41-47.78,5.78-15.95,1.43-31.92,2.3-47.89,3.04-15.98.56-31.97,1.01-47.98.88-16.01-.06-32.03-.46-48.09-1.83Z" fill="#e5bd83"/><path d="m2227.36,1517.08c15.9-2.68,31.83-4.39,47.78-5.76,15.95-1.43,31.92-2.3,47.89-3.05,15.98-.57,31.97-1.02,47.98-.9,16.01.06,32.03.47,48.09,1.84-15.89,2.69-31.83,4.41-47.78,5.78-15.95,1.43-31.92,2.3-47.89,3.04-15.98.56-31.97,1.01-47.98.88-16.01-.06-32.03-.46-48.09-1.83Z" fill="#e5bd83"/><path d="m2249.16,1599.99c22.03-29.59,23.34-102.74,2.18-132.96-40.74-.59-76.93,3.77-117.67,3.18,21.17,30.21,15.31,98.42-6.73,128.01,25.72-7.95,50.78-18.57,74.22-30.74,17.29,12.76,32.98,23.98,48,32.51Z" fill="#50bfa5"/><path d="m2368.11,1488.28c21.88-2.68,43.79-4.4,65.71-5.79,21.92-1.44,43.85-2.31,65.79-3.07,21.94-.58,43.89-1.03,65.86-.92,21.96.05,43.94.45,65.94,1.82-21.88,2.7-43.79,4.42-65.71,5.8-21.92,1.44-43.85,2.31-65.79,3.06-21.94.57-43.89,1.02-65.86.9-21.96-.06-43.94-.45-65.94-1.81Z" fill="#e5bd83"/><polygon points="2058.47 972.28 2059.38 1817.44 1999.92 1757.97 1999.92 913.66 2023.14 936.88 2058.47 972.28" fill="#e5bd83"/><path d="m1999.92,1757.97l59.47,59.47c-307.6-51.55-557.05,18.38-557.05,18.38h-119.39c-176.96-79.62-549.07-17.53-549.07-17.53l60.32-60.32s371.52-62.15,552.86,24.14c181.34-86.29,552.86-24.14,552.86-24.14Z" fill="#c9a16b"/><path d="m1999.92,913.66v844.31s-371.52-62.15-552.86,24.14v-771.17s216.74-168.06,552.86-97.28Z" fill="#fae0b2"/><path d="m1447.05,1010.94v771.17c-181.34-86.29-552.86-24.14-552.86-24.14v-844.31c336.13-70.78,552.86,97.28,552.86,97.28Z" fill="#fae0b2"/><path d="m2132.59,936.88v929.88s-380.16-66.4-630.26,0h-128.29c-260.89-79.62-612.53,0-612.53,0v-929.88h109.45l-40.89,40.89,3.79,840.52s372.11-62.08,549.07,17.53h119.39s249.45-69.93,557.05-18.38l-.92-845.16-35.33-35.39h109.45Z" fill="#3c8f7c"/><polygon points="894.19 913.66 894.19 1757.97 833.87 1818.29 830.08 977.77 870.97 936.88 894.19 913.66" fill="#e5bd83"/><path d="m1057.57,1772.46c21-3.43,42.27-4.9,63.53-5.59,21.28-.77,42.59-.22,63.84,1.15,10.63.62,21.22,1.81,31.82,2.83,10.54,1.52,21.15,2.54,31.6,4.63,21.02,3.4,41.76,8.41,62.13,14.42-10.55-1.47-20.88-3.8-31.42-5.07-10.46-1.67-20.92-3.24-31.44-4.37-20.99-2.55-42.03-4.63-63.13-5.92-21.08-1.53-42.21-2.25-63.37-2.67-21.16-.36-42.34-.17-63.57.58Z" fill="#b28856"/><path d="m1446.61,1804.84c-8.45-3.06-16.92-5.92-25.52-8.4-8.52-2.7-17.12-5.12-25.76-7.38-17.28-4.49-34.63-8.66-52.09-12.31-17.46-3.69-35.02-6.89-52.64-9.93-17.62-3.07-35.34-5.5-53.08-8.41,8.98.12,17.95.55,26.94.96,8.94.82,17.92,1.4,26.85,2.47,17.89,1.89,35.64,4.94,53.28,8.52,17.58,3.85,35.08,8.22,52.17,13.91,17.07,5.68,34.03,11.98,49.85,20.58Z" fill="#b28856"/><path d="m2029.63,1791.26l-55.3-5.15-55.23-4.91-110.61-9.21c9.27-.47,18.54-.66,27.81-.81,9.27.04,18.54.11,27.82.36,18.55.36,37.06,1.64,55.54,3.15,18.47,1.65,36.92,3.67,55.26,6.45,18.34,2.72,36.65,5.8,54.71,10.12Z" fill="#b28856"/><path d="m1817.33,1755.66c-21.23-.74-42.41-.93-63.57-.58-21.15.42-42.29,1.14-63.37,2.67-21.1,1.29-42.13,3.37-63.13,5.92-10.52,1.14-20.98,2.71-31.44,4.37-10.54,1.27-20.87,3.6-31.42,5.07,20.37-6.01,41.11-11.03,62.13-14.42,10.45-2.1,21.06-3.11,31.61-4.63,10.6-1.02,21.19-2.21,31.82-2.83,21.25-1.37,42.56-1.93,63.84-1.15,21.26.69,42.54,2.15,63.53,5.59Z" fill="#b28856"/><path d="m1442.34,1828.06c15.82-8.6,32.78-14.9,49.85-20.58,17.09-5.69,34.59-10.06,52.17-13.91,17.64-3.58,35.39-6.63,53.28-8.52,8.93-1.07,17.91-1.65,26.85-2.47,8.98-.41,17.96-.84,26.94-.96-17.74,2.91-35.47,5.35-53.08,8.41-17.62,3.05-35.18,6.24-52.64,9.93-17.47,3.66-34.81,7.82-52.09,12.31-8.64,2.26-17.24,4.68-25.76,7.38-8.6,2.48-17.07,5.34-25.52,8.4Z" fill="#b28856"/><path d="m874.3,1782.09c18.06-4.32,36.37-7.4,54.71-10.12,18.34-2.78,36.78-4.79,55.26-6.45,18.48-1.51,36.99-2.79,55.54-3.15,9.27-.24,18.55-.32,27.82-.36,9.28.15,18.55.34,27.82.81l-110.61,9.21-55.23,4.91-55.3,5.15Z" fill="#b28856"/><path d="m1134.39,1874c16.52-32.57,18.51-72.45,5.31-106.51,28.01,1.4,56.01,2.8,84.02,4.19,13.19,34.05,11.2,73.94-5.31,106.51-9.51-9.56-20.09-19.67-31.77-30.05-16.33,8.98-33.76,17.69-52.26,25.86Z" fill="#184655"/><rect x="1382.94" y="1835.82" width="119.39" height="30.94" fill="#184655"/><path d="m1447.05,1010.94c4.06,64.26,6.19,128.53,7.63,192.79.9,32.13,1.11,64.26,1.64,96.4l.54,96.4-.52,96.4c-.55,32.13-.72,64.27-1.63,96.4-1.44,64.26-3.57,128.53-7.66,192.79-4.08-64.26-6.22-128.53-7.66-192.79-.91-32.13-1.09-64.26-1.63-96.4l-.52-96.4.54-96.4c.53-32.13.73-64.26,1.64-96.4,1.44-64.26,3.57-128.53,7.63-192.79Z" fill="#f7cc7f"/><path d="m1530.68,716.3s-.48-21.8,13.63-46.5c14.13-24.71,83.55-75.59,91.79-193.33,8.07-115.4-68.21-179.1-183.92-180.21v-.04c-1.19,0-2.36.02-3.53.02-1.17,0-2.34-.03-3.53-.02v.04c-115.72,1.11-192,64.81-183.93,180.21,8.24,117.74,77.66,168.62,91.79,193.33,14.12,24.7,13.63,46.5,13.63,46.5h164.06Z" fill="#f8c558"/><path d="m1452.25,289.78c11.96.57,23.91,1.07,35.79,2.93,5.97.56,11.84,1.94,17.72,3.15l8.81,1.87,8.66,2.59,8.64,2.6c2.85.98,5.62,2.22,8.42,3.31,5.63,2.19,11.23,4.45,16.5,7.47,5.4,2.75,10.75,5.56,15.67,9.14l7.55,5.07c2.45,1.79,4.67,3.87,7.02,5.8l6.93,5.89,6.23,6.65c2.04,2.25,4.2,4.38,6.14,6.73l5.37,7.36c3.8,4.76,6.72,10.08,9.61,15.4,3.21,5.18,5.31,10.86,7.61,16.45,2.56,5.51,3.95,11.39,5.59,17.18,1.88,5.75,2.72,11.71,3.68,17.64.45,2.96,1.04,5.9,1.38,8.89l.56,9.04c.42,6.05.8,12.07.38,17.87-.36,5.94-.13,11.5-.97,17.77l-2.06,17.67-3.29,17.49c-1.15,5.81-2.91,11.5-4.34,17.24-3.25,11.4-7.24,22.59-11.97,33.46-4.71,10.87-10.27,21.34-16.32,31.51-6.31,9.99-12.86,19.83-20.25,29.03-7.26,9.28-15,18.16-22.75,26.93-3.85,4.46-7.65,8.72-10.96,13.48-1.76,2.39-3.04,4.8-4.38,7.44-1.36,2.56-2.73,5.11-3.75,7.83-4.48,10.63-7.57,22.07-7.98,33.64h-1.62c.14-11.91,3.02-23.56,7.35-34.56.98-2.8,2.31-5.46,3.65-8.1,1.24-2.63,2.67-5.41,4.34-7.79,3.26-4.94,7.19-9.54,10.88-14.04,7.57-8.97,15.03-17.94,21.99-27.28,7.1-9.26,13.33-19.09,19.3-29.05,5.7-10.12,10.92-20.5,15.28-31.24,4.37-10.73,8.01-21.76,10.94-32.95,1.25-5.65,2.85-11.23,3.84-16.93l2.82-17.13,1.61-17.29c.65-5.38.32-11.59.53-17.34.31-5.92-.18-11.59-.68-17.23l-.66-8.5c-.36-2.82-.99-5.62-1.47-8.44-1.01-5.63-1.89-11.28-3.78-16.68-1.66-5.45-3.04-10.99-5.55-16.1-2.25-5.21-4.29-10.52-7.38-15.29-2.79-4.92-5.57-9.85-9.2-14.2l-5.1-6.76c-1.83-2.14-3.89-4.09-5.82-6.15l-5.88-6.09-6.56-5.35c-2.21-1.76-4.29-3.67-6.61-5.29l-7.14-4.6c-4.62-3.27-9.7-5.81-14.8-8.3-4.96-2.75-10.28-4.78-15.61-6.75-2.67-.98-5.27-2.11-7.98-2.99l-8.23-2.3-8.22-2.32-8.41-1.62c-5.61-1.06-11.19-2.29-16.92-2.71-11.34-1.59-22.82-1.85-34.29-2.22l-6.36-.2-.05-6.26v-.04l6.41,6.47-6.95.07,6.5-6.54v.04l.07,6.19-6.55.35c-11.46.59-22.91,1.09-34.19,2.89-5.69.54-11.23,1.87-16.79,3.04l-8.33,1.79-8.12,2.46-8.12,2.45c-2.67.91-5.23,2.09-7.85,3.12-5.24,2.06-10.45,4.16-15.29,6.99-4.98,2.55-9.93,5.14-14.41,8.46l-6.92,4.65c-2.24,1.64-4.24,3.58-6.39,5.32l-6.35,5.33-5.65,6.05c-1.86,2.03-3.84,3.97-5.59,6.08l-4.87,6.69c-3.48,4.29-6.11,9.13-8.74,13.98-2.95,4.68-4.85,9.89-7.03,14.96-2.43,4.98-3.75,10.4-5.34,15.72-1.83,5.25-2.65,10.78-3.62,16.29-.45,2.75-1.06,5.48-1.41,8.26l-.62,8.41c-.48,5.6-.89,11.2-.6,16.87.18,5.57-.18,11.48.43,16.82l1.56,17.51,2.68,16.68c.94,5.56,2.5,11.1,3.71,16.67,2.83,11.05,6.37,21.93,10.63,32.52,4.3,10.59,9.27,20.91,14.72,31,5.74,9.94,11.75,19.79,18.64,29.08,6.76,9.4,14.06,18.42,21.46,27.55,3.63,4.67,7.34,9.25,10.62,14.48.81,1.38,1.62,2.52,2.4,4.08l1.85,4c1.25,2.64,2.5,5.29,3.45,8.23,4.18,11.36,6.64,23.08,6.34,35.07l-1.62-.03c-.86-11.47-4.37-22.85-9-33.13-1.04-2.59-2.49-5.14-3.94-7.7l-2.15-3.84c-.6-1-1.57-2.21-2.33-3.3-3.29-4.48-7.3-8.75-11.22-13.04-7.91-8.6-15.82-17.43-23.28-26.67-7.59-9.14-14.37-18.98-20.91-29-3.06-5.13-6.18-10.27-9.05-15.53-2.64-5.38-5.54-10.66-7.82-16.21-4.83-10.99-8.92-22.33-12.27-33.87-1.47-5.83-3.26-11.54-4.47-17.5l-3.43-17.95-2.11-17.45c-.89-6.29-.69-12.17-1.07-18.29-.44-6.06,0-12.14.45-18.22l.6-9.13c.35-3.03.97-6.05,1.44-9.08,1-6.05,1.89-12.13,3.83-18.01,1.71-5.92,3.16-11.93,5.81-17.57,2.34-5.73,4.59-11.52,7.96-16.77,3.04-5.42,6.11-10.82,10.07-15.64l5.61-7.45c2-2.35,4.24-4.52,6.36-6.78l6.46-6.69,7.16-5.91c2.41-1.93,4.72-4,7.25-5.76l7.76-5.01c5.06-3.54,10.54-6.3,16.05-8.96,5.39-2.96,11.09-5.13,16.81-7.24,2.86-1.05,5.67-2.26,8.56-3.17l8.76-2.45,8.76-2.45,8.89-1.72c5.93-1.1,11.84-2.37,17.84-2.83,11.94-1.64,23.92-1.9,35.89-2.24l-6.48,6.54v-.04l.07-6.6,6.43.06,7.16.07,6.46.07-6.46-.03Z" fill="#fff"/><path d="m1390.99,716.3c-.4-.95-38.94-94.32-52.42-153.6-4.88-21.45,3.45-30.62,8.85-34.17,9.73-6.41,24.77-4.52,37.41,4.69.84.62,1.67,1.27,2.49,1.95,2.32-4.67,5.15-8.57,8.56-11.35,5.35-4.37,14.51-7.81,27.75.63,6.89,4.4,12.59,9.23,17.25,14.3,4.63-7.26,10.12-12.8,16.36-15.23,6.08-2.38,15.61-2.86,26.43,8.35,2.9,2.99,5.45,5.96,7.71,8.88,7.65-5.98,16.44-7.53,25.85-4.51,5.64,1.83,9.99,5.84,12.93,11.93,19.06,39.45-25.57,162.84-27.56,168.14h-9.91c.47-1.27,47.7-128.27,30.15-164.6-1.97-4.07-4.62-6.6-8.1-7.72-6.8-2.21-13.05-1.04-18.64,3.43,14.59,22.88,11.53,42.2,9.07,50.44-3.99,13.4-13.22,23.57-23.51,25.92-3.97.9-7.57-.72-9.94-4.45-7.95-12.42-2.82-51.37,12.51-71.24.43-.55.87-1.1,1.3-1.62-2.22-2.92-4.76-5.92-7.69-8.94-6.27-6.5-12.03-8.62-17.64-6.43-4.96,1.93-9.68,7.23-13.8,14.39,17.22,23.86,14.38,51.28,6.27,66.32-5.66,10.49-13.73,14.97-21,11.73-5.65-2.53-8.35-10.63-8.03-24.05.37-15.55,4.96-36.88,13.03-53.2-4.51-5.32-10.23-10.4-17.42-14.98-9.32-5.96-16.26-5.07-21.85,2.79-1.48,2.07-2.77,4.48-3.91,7.15,11.46,13.24,18.81,34.59,11.09,62.3-4.01,14.39-7.99,20.65-13.34,20.9-3.69.13-6.58-2.48-8.64-7.88-5.03-13.17-6.68-49.08,1.46-73.41-1.58-1.48-2.98-2.6-4.03-3.36-9.92-7.23-21.25-9.03-28.15-4.48-6.29,4.14-8.19,13.22-5.39,25.58,13.32,58.6,53.58,154.45,53.97,155.38l-9.48.02Zm51.21-162.42c-6.04,13.82-10.08,31.36-10.43,45.81-.3,12.1,2.29,16.01,3.22,16.42,2.95,1.3,7.19-1.95,10.53-8.15,6.61-12.27,9.06-34.09-3.32-54.08Zm48.11-.34c-13.44,17.94-17.34,52.66-11.74,61.42.65,1.03.98.96,1.29.9,6.13-1.39,13.92-8.22,17.53-20.32,2.04-6.86,4.52-22.69-7.07-42Zm-99.9-3.08c-6.33,24.2-3.78,58.53.63,65.23,1.04-1.35,3.11-4.97,5.73-14.33,6.83-24.53.67-40.99-6.35-50.9Z" fill="#fe875e"/><path d="m1367.81,351.27c-8.06-8.34-28.34-1.83-45.3,14.54-16.96,16.38-24.19,36.41-16.13,44.76,8.06,8.35,28.34,1.84,45.3-14.53,16.96-16.37,24.19-36.41,16.13-44.77Z" fill="#fff"/><path d="m1556.8,728.5c0,6.73-9.24,12.2-20.65,12.2h-166.86c-11.41,0-20.65-5.46-20.65-12.2h0c0-6.73,9.24-12.2,20.65-12.2h166.86c11.41,0,20.65,5.46,20.65,12.2h0Z" fill="#efefef"/><path d="m1556.8,752.89c0,6.73-9.24,12.19-20.65,12.19h-166.86c-11.41,0-20.65-5.46-20.65-12.19h0c0-6.74,9.24-12.2,20.65-12.2h166.86c11.41,0,20.65,5.46,20.65,12.2h0Z" fill="#d6d6d6"/><path d="m1556.8,777.28c0,6.73-9.24,12.2-20.65,12.2h-166.86c-11.41,0-20.65-5.46-20.65-12.2h0c0-6.73,9.24-12.2,20.65-12.2h166.86c11.41,0,20.65,5.47,20.65,12.2h0Z" fill="#efefef"/><path d="m1556.8,801.67c0,6.74-9.24,12.2-20.65,12.2h-166.86c-11.41,0-20.65-5.46-20.65-12.2h0c0-6.73,9.24-12.2,20.65-12.2h166.86c11.41,0,20.65,5.47,20.65,12.2h0Z" fill="#d6d6d6"/><polygon points="1452.72 813.87 1364.58 813.87 1364.58 824.7 1398.58 837.86 1452.72 837.86 1506.87 837.86 1540.86 824.7 1540.86 813.87 1452.72 813.87" fill="#efefef"/></g></svg>